<svg version="1.1" xmlns="http://www.w3.org/2000/svg" viewBox="0 0 966.0723252068474 486.5073979967592" width="966.0723252068474" height="486.5073979967592">
  <!-- svg-source:excalidraw -->
  
  <defs>
    <style>
      @font-face {
        font-family: "Virgil";
        src: url("https://excalidraw.com/Virgil.woff2");
      }
      @font-face {
        font-family: "Cascadia";
        src: url("https://excalidraw.com/Cascadia.woff2");
      }
    </style>
  </defs>
  <g transform="translate(384.959784387479 196.3107630955692) rotate(0 92 23)"><text x="0" y="32" font-family="Virgil, Segoe UI Emoji" font-size="36px" fill="#000000" text-anchor="start" style="white-space: pre;" direction="ltr">Learn with</text></g><g stroke-linecap="round"><g transform="translate(580.3158631045499 227.4694934902991) rotate(0 57.64198041080314 -32.698982574951714)"><path d="M1.25 -0.34 C20.88 -10.78, 97.23 -54.49, 116.8 -65.06 M-1.52 -2.99 C17.78 -12.79, 94.46 -52.24, 114.32 -61.79" stroke="#000000" stroke-width="4" fill="none"></path></g></g><g stroke-linecap="round" transform="translate(693.686628104273 91.17084408310257) rotate(0 131.19284855128717 60.81695724124165)"><path d="M101.42 2.47 C115.62 -0.24, 134.56 -0.78, 150.22 0.02 C165.88 0.81, 181.76 3.91, 195.39 7.26 C209.03 10.6, 221.73 14.2, 232.06 20.07 C242.38 25.94, 252.24 35.1, 257.36 42.46 C262.47 49.81, 263.64 57.16, 262.74 64.21 C261.83 71.25, 258.28 78.29, 251.92 84.72 C245.56 91.16, 235.61 97.51, 224.58 102.83 C213.56 108.15, 200.38 113.57, 185.75 116.65 C171.13 119.73, 153.05 121.3, 136.84 121.31 C120.64 121.32, 103.43 118.77, 88.52 116.71 C73.61 114.65, 59.36 113.44, 47.39 108.96 C35.42 104.47, 24.07 96.32, 16.7 89.81 C9.32 83.3, 5.61 77.22, 3.13 69.9 C0.64 62.57, -1.6 53.28, 1.79 45.86 C5.19 38.43, 14.4 31.31, 23.5 25.36 C32.6 19.42, 38.43 14.48, 56.38 10.18 C74.33 5.87, 114.14 0.61, 131.18 -0.46 C148.21 -1.54, 159.04 2.85, 158.59 3.74 M20.54 27.97 C28.01 21.78, 46.07 17.62, 59.72 12.93 C73.37 8.25, 87.25 1.73, 102.43 -0.15 C117.62 -2.04, 135.66 0.27, 150.81 1.62 C165.96 2.97, 179.33 4.78, 193.33 7.96 C207.34 11.15, 224.14 15.66, 234.86 20.73 C245.57 25.81, 252.92 31.58, 257.62 38.4 C262.32 45.23, 264.26 54.04, 263.06 61.66 C261.85 69.28, 257.25 77.05, 250.41 84.11 C243.57 91.17, 232.87 98.86, 221.99 104.02 C211.11 109.18, 198.99 111.73, 185.14 115.05 C171.29 118.38, 155.18 123.62, 138.88 123.97 C122.59 124.33, 102.15 119.82, 87.37 117.19 C72.59 114.57, 62.15 112.43, 50.19 108.22 C38.23 104.02, 24.14 98.69, 15.61 91.96 C7.08 85.23, 1.2 75.19, -0.99 67.84 C-3.18 60.48, -1.97 54.9, 2.46 47.84 C6.89 40.78, 22.01 29.42, 25.59 25.49 C29.17 21.56, 22.12 23.46, 23.93 24.26" stroke="#000000" stroke-width="4" fill="none"></path></g><g transform="translate(729.6691350854262 136.81891939678098) rotate(0 101.5 17.5)"><text x="0" y="25" font-family="Virgil, Segoe UI Emoji" font-size="28px" fill="#000000" text-anchor="start" style="white-space: pre;" direction="ltr">Videos Lecture</text></g><g stroke-linecap="round"><g transform="translate(366.7170152242652 212.26069141508196) rotate(0 -45.65981244328784 -33.60604915992957)"><path d="M-0.66 1.4 C-16.21 -9.24, -78.2 -53.48, -93.61 -64.27 M4.18 -0.31 C-11.65 -11.75, -79.07 -57.38, -95.5 -68.61" stroke="#000000" stroke-width="4" fill="none"></path></g></g><g stroke-linecap="round" transform="translate(138.70400764837723 10) rotate(0 106.77188306759544 67.36895809482161)"><path d="M152.08 7.45 C164.29 9.82, 176.8 16.01, 185.73 22.57 C194.67 29.12, 200.89 38.65, 205.71 46.77 C210.53 54.89, 214.92 62.94, 214.65 71.27 C214.38 79.59, 210.21 89.03, 204.09 96.74 C197.97 104.45, 188.33 111.69, 177.94 117.54 C167.56 123.39, 154.49 129.15, 141.78 131.82 C129.06 134.5, 115.16 134.47, 101.65 133.6 C88.13 132.73, 73.36 130.22, 60.7 126.62 C48.03 123.03, 34.55 118.17, 25.66 112.03 C16.76 105.88, 11.73 97.47, 7.33 89.75 C2.94 82.03, -1.29 74.53, -0.72 65.72 C-0.16 56.91, 4.95 44.81, 10.72 36.9 C16.49 28.99, 24.07 23.8, 33.89 18.27 C43.71 12.75, 56.71 6.58, 69.66 3.75 C82.61 0.93, 91.87 -1.99, 111.58 1.33 C131.29 4.65, 171.75 15.93, 187.93 23.69 C204.11 31.44, 210.12 47.44, 208.64 47.89 M64.56 8.76 C75.79 5.11, 92.9 1.98, 105.98 1.55 C119.05 1.12, 130.5 3.6, 143.03 6.17 C155.56 8.73, 170.9 10.83, 181.16 16.92 C191.41 23.02, 199.35 34.29, 204.55 42.73 C209.75 51.17, 212.52 59.33, 212.36 67.57 C212.19 75.82, 208.53 84.65, 203.56 92.18 C198.58 99.71, 191.58 106.99, 182.53 112.74 C173.48 118.5, 161.32 122.93, 149.24 126.71 C137.16 130.49, 123.72 134.61, 110.07 135.44 C96.43 136.27, 79.74 135.27, 67.37 131.69 C55 128.12, 45.74 119.67, 35.85 113.97 C25.95 108.27, 13.87 105.14, 8 97.51 C2.12 89.88, 0.51 77.59, 0.58 68.18 C0.66 58.77, 3.94 49.08, 8.46 41.07 C12.97 33.07, 18.42 25.53, 27.67 20.13 C36.92 14.73, 58.09 11, 63.98 8.65 C69.86 6.31, 62.86 5.02, 62.96 6.05" stroke="#000000" stroke-width="4" fill="none"></path></g><g transform="translate(191.7371145594052 48.662389218980024) rotate(0 64.5 35)"><text x="0" y="25" font-family="Virgil, Segoe UI Emoji" font-size="28px" fill="#000000" text-anchor="start" style="white-space: pre;" direction="ltr">Practice </text><text x="0" y="60" font-family="Virgil, Segoe UI Emoji" font-size="28px" fill="#000000" text-anchor="start" style="white-space: pre;" direction="ltr">question</text></g><g transform="translate(616.9719548225403 377.6494878405092) rotate(0 124.5 35)"><text x="0" y="25" font-family="Virgil, Segoe UI Emoji" font-size="28px" fill="#000000" text-anchor="start" style="white-space: pre;" direction="ltr">Code in C++,Java,</text><text x="0" y="60" font-family="Virgil, Segoe UI Emoji" font-size="28px" fill="#000000" text-anchor="start" style="white-space: pre;" direction="ltr">       Python</text></g><g stroke-linecap="round" transform="translate(598.1697087287903 342.55677543816546) rotate(0 144.75308227539062 66.97531127929688)"><path d="M174.15 1.93 C190.87 2.28, 209.16 5.84, 223.77 10.13 C238.38 14.43, 251.78 21.03, 261.8 27.72 C271.82 34.42, 279.55 42.67, 283.89 50.3 C288.23 57.93, 289.7 65.53, 287.85 73.49 C286 81.46, 280.61 90.95, 272.8 98.09 C264.98 105.24, 254.07 111.17, 240.96 116.34 C227.84 121.51, 210.48 126.15, 194.09 129.09 C177.71 132.03, 160.06 134.09, 142.63 133.97 C125.21 133.85, 105.8 131.48, 89.55 128.38 C73.3 125.29, 57.6 120.72, 45.12 115.37 C32.65 110.03, 22.29 103.46, 14.71 96.3 C7.13 89.14, 1.2 80.59, -0.35 72.4 C-1.9 64.21, 0.18 54.95, 5.41 47.18 C10.64 39.41, 20.27 32.1, 31.04 25.79 C41.81 19.48, 55.13 13.59, 70.03 9.33 C84.93 5.08, 101.14 1.46, 120.44 0.27 C139.73 -0.91, 173.39 1.26, 185.78 2.21 C198.18 3.16, 195.53 4.68, 194.81 5.98 M175.04 2.2 C191.8 3.04, 210.27 7.25, 225.14 11.36 C240.01 15.47, 254.11 20.08, 264.27 26.86 C274.42 33.64, 282.1 43.89, 286.05 52.06 C290 60.23, 290.41 68.17, 287.98 75.88 C285.54 83.59, 279.43 91.22, 271.44 98.31 C263.45 105.4, 253.12 113.16, 240.02 118.43 C226.91 123.69, 209.48 127.48, 192.82 129.89 C176.16 132.3, 157.71 132.97, 140.05 132.89 C122.39 132.81, 103.12 132.58, 86.87 129.42 C70.62 126.27, 54.83 119.63, 42.57 113.96 C30.31 108.3, 20.49 102.34, 13.31 95.44 C6.13 88.53, 0.57 80.71, -0.5 72.55 C-1.57 64.39, 1.39 54.23, 6.89 46.49 C12.4 38.75, 21.42 32.61, 32.52 26.11 C43.61 19.61, 58.46 11.81, 73.47 7.49 C88.48 3.17, 105.69 1.27, 122.56 0.19 C139.43 -0.89, 165.73 0.52, 174.71 1 C183.68 1.48, 176.83 1.7, 176.41 3.09" stroke="#000000" stroke-width="4" fill="none"></path></g><g stroke-linecap="round"><g transform="translate(556.194061756134 267.2482427233217) rotate(0 43.98198826247827 48.115604380890716)"><path d="M0.43 -0.98 C15.05 15.32, 72.08 81.04, 86.61 97.21 M-0.81 1.13 C14.28 17.14, 74.18 79.55, 88.77 95.56" stroke="#000000" stroke-width="4" fill="none"></path></g></g><g transform="translate(43.09633111953735 347.058923112726) rotate(0 107 35)"><text x="0" y="25" font-family="Virgil, Segoe UI Emoji" font-size="28px" fill="#000000" text-anchor="start" style="white-space: pre;" direction="ltr">Time and space</text><text x="0" y="60" font-family="Virgil, Segoe UI Emoji" font-size="28px" fill="#000000" text-anchor="start" style="white-space: pre;" direction="ltr">    complexity</text></g><g stroke-linecap="round" transform="translate(10 322.9662717455385) rotate(0 142.28396606445312 65.1234130859375)"><path d="M143.17 0 C159.52 -0.92, 177.66 2.49, 193.54 5.27 C209.42 8.05, 225.73 11.56, 238.46 16.69 C251.2 21.82, 262.28 28.86, 269.97 36.04 C277.66 43.21, 282.98 51.92, 284.6 59.74 C286.22 67.56, 284.4 75.45, 279.69 82.97 C274.98 90.49, 266.78 98.56, 256.36 104.86 C245.93 111.15, 231.82 116.66, 217.14 120.72 C202.45 124.78, 185 127.93, 168.26 129.22 C151.52 130.51, 133.41 129.84, 116.68 128.44 C99.96 127.04, 82.56 124.73, 67.9 120.82 C53.25 116.9, 39.2 111.39, 28.74 104.95 C18.27 98.51, 9.72 89.99, 5.13 82.19 C0.54 74.38, -0.52 65.66, 1.21 58.14 C2.94 50.62, 7.93 43.88, 15.51 37.06 C23.09 30.23, 34.2 22.51, 46.7 17.19 C59.19 11.87, 73.49 8.11, 90.46 5.13 C107.42 2.15, 137.82 -0.07, 148.48 -0.68 C159.14 -1.29, 154.32 0.25, 154.4 1.45 M206.26 8.39 C221.62 10.64, 236.87 15.58, 248.5 21.17 C260.13 26.75, 270.13 34.68, 276.04 41.89 C281.96 49.1, 284.29 56.31, 284 64.42 C283.71 72.54, 280.3 83.14, 274.3 90.59 C268.3 98.04, 259.59 103.52, 248.01 109.14 C236.43 114.76, 220.2 121.03, 204.81 124.28 C189.41 127.53, 173.01 127.92, 155.67 128.62 C138.33 129.33, 117.25 130.49, 100.76 128.5 C84.27 126.52, 70.28 121.88, 56.7 116.7 C43.12 111.53, 28.27 104.1, 19.28 97.46 C10.29 90.81, 5.49 84.5, 2.78 76.85 C0.06 69.2, -0.23 59.54, 2.99 51.57 C6.21 43.61, 13.2 35.47, 22.09 29.07 C30.97 22.68, 42.74 17.49, 56.28 13.22 C69.82 8.95, 86.56 5.39, 103.34 3.45 C120.11 1.51, 139.88 0.79, 156.92 1.56 C173.97 2.33, 197.47 7.19, 205.61 8.07 C213.74 8.94, 206.46 6.23, 205.74 6.83" stroke="#000000" stroke-width="4" fill="none"></path></g><g stroke-linecap="round"><g transform="translate(366.1727294921875 255.68227516350726) rotate(0 -47.571278786417096 43.60252322368325)"><path d="M-0.42 -0.69 C-16.3 13.81, -79.87 73.21, -95.94 87.9 M1.56 1.56 C-14.39 15.65, -80.13 72.27, -96.7 86.23" stroke="#000000" stroke-width="4" fill="none"></path></g></g><g stroke-linecap="round" transform="translate(370.870365858078 170.87952481446246) rotate(0 104.0123291015625 47.222198486328125)"><path d="M23.61 0 M23.61 0 C71.48 0.86, 122.12 1.85, 184.41 0 M23.61 0 C77.9 0.54, 129.8 0.8, 184.41 0 M184.41 0 C199.06 1.35, 209.06 6.76, 208.02 23.61 M184.41 0 C200.95 0.28, 207.48 5.83, 208.02 23.61 M208.02 23.61 C208.91 40.33, 209.59 58.06, 208.02 70.83 M208.02 23.61 C207.74 35.67, 209.21 49.11, 208.02 70.83 M208.02 70.83 C209.44 84.59, 199.4 92.7, 184.41 94.44 M208.02 70.83 C208.14 86.89, 200.45 96.61, 184.41 94.44 M184.41 94.44 C126.92 94.48, 74.73 94.06, 23.61 94.44 M184.41 94.44 C144.85 93.97, 104.75 94.91, 23.61 94.44 M23.61 94.44 C7.35 94.97, 1.04 88.04, 0 70.83 M23.61 94.44 C9.68 95.47, 1.24 88.4, 0 70.83 M0 70.83 C-0.55 52.84, 0.67 35.25, 0 23.61 M0 70.83 C-0.3 57.6, -0.36 43.46, 0 23.61 M0 23.61 C0.38 7.77, 9.15 0.37, 23.61 0 M0 23.61 C1.44 7.99, 6.81 0.87, 23.61 0" stroke="#000000" stroke-width="4" fill="none"></path></g></svg>